<svg xmlns="http://www.w3.org/2000/svg" viewBox="0 0 50 50" width="50px" height="50px">
    <linearGradient id="instagram-gradient" x1="0" x2="50" y1="0" y2="50" gradientUnits="userSpaceOnUse">
        <stop stop-color="#fd5" offset="0%"/>
        <stop stop-color="#ff543e" offset="50%"/>
        <stop stop-color="#c837ab" offset="100%"/>
    </linearGradient>
    <path fill="url(#instagram-gradient)" d="M25,2C12.317,2,2,12.317,2,25s10.317,23,23,23s23-10.317,23-23S37.683,2,25,2z"/>
    <path fill="#FFF" d="M36,25c0,6.075,0,11,0,11s0,2-2,2s-12,0-12,0s-2,0-2-2s0-5,0-11s0-6,0-6s0-2,2-2 s12,0,12,0s2,0,2,2S36,19,36,25z M25,19c3.314,0,6,2.686,6,6s-2.686,6-6,6s-6-2.686-6-6S21.686,19,25,19z M25,29c2.209,0,4-1.791,4-4 s-1.791-4-4-4s-4,1.791-4,4S22.791,29,25,29z M32.5,19.25c-0.69,0-1.25,0.56-1.25,1.25s0.56,1.25,1.25,1.25s1.25-0.56,1.25-1.25 S33.19,19.25,32.5,19.25z"/>
</svg>
