<svg xmlns="http://www.w3.org/2000/svg" viewBox="0 0 50 50" width="50px" height="50px">
    <path fill="#25D366" d="M25,2C12.317,2,2,12.317,2,25c0,4.256,1.157,8.225,3.136,11.696L2.33,48.5l11.66-3.791 c3.255,1.725,6.99,2.775,10.957,2.775h0.053c12.682,0,23-10.317,23-23C48,12.317,37.683,2,25,2z M25.059,42.864h-0.045 c-3.578,0-6.985-0.966-9.986-2.618l-0.716-0.395l-6.903,2.245l2.251-7.149l-0.428-0.743C7.309,30.932,6.071,27.973,6.071,25 c0-10.458,8.51-18.969,18.969-18.969c5.074,0,9.835,1.974,13.418,5.559c3.585,3.585,5.559,8.344,5.559,13.418 C44.017,34.349,35.506,42.864,25.059,42.864z"/>
    <path fill="#FFF" d="M35.342,32.378c-0.563-0.28-3.333-1.637-3.849-1.824c-0.516-0.187-0.89-0.28-1.264,0.28s-1.45,1.824-1.777,2.2 s-0.655,0.421-1.217,0.14c-0.563-0.28-2.375-0.871-4.524-2.78c-1.673-1.485-2.803-3.319-3.13-3.88s-0.035-0.864,0.246-1.144 c0.254-0.252,0.563-0.655,0.844-0.983c0.28-0.328,0.373-0.563,0.563-0.938c0.187-0.375,0.093-0.702-0.047-0.983 s-1.264-3.037-1.732-4.161c-0.456-1.096-0.919-0.946-1.264-0.963c-0.328-0.016-0.702-0.019-1.077-0.019 c-0.375,0-0.983,0.14-1.498,0.702c-0.516,0.563-1.967,1.919-1.967,4.679c0,2.76,2.013,5.424,2.294,5.799 c0.281,0.375,3.961,6.015,9.593,8.438c1.339,0.578,2.383,0.923,3.203,1.182c1.353,0.428,2.585,0.368,3.568,0.223 c1.1-0.163,3.333-1.357,3.801-2.668c0.468-1.311,0.468-2.435,0.328-2.668C36.233,32.658,35.905,32.565,35.342,32.378z"/>
</svg>
